<svg width="32" height="32" viewBox="0 0 32 32" fill="none" xmlns="http://www.w3.org/2000/svg">
<path fill-rule="evenodd" clip-rule="evenodd" d="M16.0601 0C16.3605 0 16.604 0.243517 16.604 0.543911V8.42255C16.4301 8.41047 16.2546 8.40434 16.0776 8.40434C15.8887 8.40434 15.7015 8.41133 15.5161 8.42507V0.543912C15.5161 0.243517 15.7597 0 16.0601 0ZM13.5549 8.84002L12.0854 5.40912C11.9672 5.13299 11.6474 5.00502 11.3713 5.12329C11.0952 5.24156 10.9672 5.56129 11.0855 5.83742L12.5602 9.28048C12.8787 9.11061 13.211 8.96309 13.5549 8.84002ZM11.1826 10.2263L5.60734 4.65098C5.39493 4.43857 5.05054 4.43857 4.83813 4.65098C4.62572 4.86339 4.62572 5.20777 4.83813 5.42019L10.4134 10.9955C10.6509 10.7209 10.9081 10.4638 11.1826 10.2263ZM9.32421 12.6563L5.6801 11.1978C5.40122 11.0861 5.08465 11.2217 4.97302 11.5006C4.8614 11.7795 4.99699 12.0961 5.27587 12.2077L8.92662 13.6689C9.03497 13.3198 9.16819 12.9815 9.32421 12.6563ZM8.61095 15.3465H0.543913C0.243518 15.3465 0 15.5901 0 15.8904C0 16.1908 0.243518 16.4344 0.543913 16.4344H8.61095C8.59805 16.2547 8.59149 16.0734 8.59149 15.8905C8.59149 15.7075 8.59805 15.5262 8.61095 15.3465ZM8.99341 18.3167L5.48998 19.8173C5.21385 19.9355 5.08588 20.2553 5.20415 20.5314C5.32242 20.8075 5.64215 20.9355 5.91828 20.8172L9.42014 19.3173C9.2547 18.9966 9.11176 18.6623 8.99341 18.3167ZM10.4134 20.7854L4.83813 26.3607C4.62572 26.5731 4.62572 26.9175 4.83813 27.1299C5.05054 27.3423 5.39493 27.3423 5.60734 27.1299L11.1826 21.5546C10.9081 21.3171 10.6509 21.06 10.4134 20.7854ZM12.7213 22.5838L11.3682 25.9645C11.2565 26.2434 11.3921 26.5599 11.671 26.6716C11.9499 26.7832 12.2665 26.6476 12.3781 26.3687L13.7265 22.9999C13.3795 22.8852 13.0437 22.7458 12.7213 22.5838ZM15.5161 23.3558V31.0498C15.5161 31.3502 15.7597 31.5937 16.0601 31.5937C16.3605 31.5937 16.604 31.3502 16.604 31.0498V23.3584C16.4301 23.3704 16.2546 23.3766 16.0776 23.3766C15.8887 23.3766 15.7015 23.3696 15.5161 23.3558ZM18.4354 22.9977L19.8981 26.4127C20.0164 26.6888 20.3361 26.8168 20.6122 26.6985C20.8884 26.5803 21.0164 26.2605 20.8981 25.9844L19.4402 22.5807C19.1179 22.743 18.7823 22.8827 18.4354 22.9977ZM20.9726 21.5546L26.5479 27.1299C26.7603 27.3423 27.1047 27.3423 27.3171 27.1299C27.5295 26.9175 27.5295 26.5731 27.3171 26.3607L21.7418 20.7854C21.5043 21.06 21.2472 21.3171 20.9726 21.5546ZM22.7862 19.2163L26.0501 20.5226C26.329 20.6343 26.6456 20.4987 26.7572 20.2198C26.8688 19.9409 26.7332 19.6243 26.4543 19.5127L23.1977 18.2092C23.0846 18.5568 22.9467 18.8931 22.7862 19.2163ZM23.5443 16.4344H31.237C31.5374 16.4344 31.7809 16.1908 31.7809 15.8904C31.7809 15.5901 31.5374 15.3465 31.237 15.3465H23.5443C23.5572 15.5262 23.5637 15.7075 23.5637 15.8905C23.5637 16.0734 23.5572 16.2547 23.5443 16.4344ZM23.152 13.4358L26.4936 12.0046C26.7697 11.8863 26.8977 11.5666 26.7794 11.2904C26.6611 11.0143 26.3414 10.8863 26.0653 11.0046L22.7212 12.4369C22.888 12.757 23.0323 13.0906 23.152 13.4358ZM21.7418 10.9955L27.3171 5.42019C27.5295 5.20777 27.5295 4.86339 27.3171 4.65097C27.1047 4.43856 26.7603 4.43856 26.5479 4.65098L20.9726 10.2263C21.2472 10.4638 21.5043 10.7209 21.7418 10.9955ZM19.281 9.12239L20.6423 5.72115C20.754 5.44227 20.6184 5.1257 20.3395 5.01407C20.0606 4.90245 19.744 5.03804 19.6324 5.31692L18.2665 8.72943C18.6162 8.83619 18.9551 8.96787 19.281 9.12239Z" fill="black"/>
<circle cx="16.0776" cy="15.8904" r="6.61181" stroke="black"/>
</svg>
